<svg width="190" height="174" viewBox="0 0 190 174" fill="none" xmlns="http://www.w3.org/2000/svg">
<rect width="190" height="174" fill="white"/>
<path d="M156.75 141.375C140.125 152.613 115.187 159.5 95 159.5C66.1042 159.5 40.375 148.988 20.5833 132.675C19 131.225 20.5833 129.775 22.1667 130.5C43.5417 141.738 67.6875 148.263 94.6042 148.263C112.812 148.263 135.771 144.638 154.375 137.388C157.146 136.663 159.521 139.563 156.75 141.375ZM162.688 133.763C160.708 131.225 148.833 132.675 143.687 133.038C142.104 133.038 141.708 131.95 143.292 130.863C152.396 124.7 167.833 126.513 169.417 128.688C171 130.863 169.021 145 160.313 151.525C159.125 152.613 157.542 151.888 158.333 150.8C160.313 146.45 164.667 136.3 162.688 133.763Z" fill="#FFB300"/>
<path d="M64.875 115C61.75 115 60.1875 113.646 60.1875 110.938V105.812C60.1875 102.938 61.25 100.042 63.375 97.125L104 41V40.5625C101.5 40.7708 99 40.875 96.5 40.875H67.375C64.25 40.875 62.6875 39.5208 62.6875 36.8125V29.4375C62.6875 26.7292 64.25 25.375 67.375 25.375H124.375C127.5 25.375 129.062 26.7292 129.062 29.4375V33.625C129.062 35.8333 128.333 37.9375 126.875 39.9375L83.75 99.375V99.8125C86.25 99.6042 88.75 99.5 91.25 99.5H126.125C129.25 99.5 130.812 100.854 130.812 103.562V110.938C130.812 113.646 129.25 115 126.125 115H64.875Z" fill="#37474F"/>
<path d="M63.375 97.125L67.4162 100.069L67.4208 100.063L67.4253 100.057L63.375 97.125ZM104 41L108.05 43.9317L109 42.6197V41H104ZM104 40.5625H109V35.1285L103.585 35.5798L104 40.5625ZM126.875 39.9375L122.835 36.9916L122.828 37.0012L126.875 39.9375ZM83.75 99.375L79.703 96.4387L78.75 97.7522V99.375H83.75ZM83.75 99.8125H78.75V105.246L84.1652 104.795L83.75 99.8125ZM64.875 115V110C64.4386 110 64.241 109.951 64.2119 109.943C64.1979 109.938 64.3876 109.992 64.634 110.206C64.8958 110.433 65.0641 110.704 65.1472 110.92C65.2187 111.106 65.1875 111.145 65.1875 110.938H60.1875H55.1875C55.1875 113.264 55.8917 115.862 58.0847 117.763C60.1409 119.545 62.7033 120 64.875 120V115ZM60.1875 110.938H65.1875V105.812H60.1875H55.1875V110.938H60.1875ZM60.1875 105.812H65.1875C65.1875 104.239 65.7537 102.351 67.4162 100.069L63.375 97.125L59.3338 94.1807C56.7463 97.7321 55.1875 101.636 55.1875 105.812H60.1875ZM63.375 97.125L67.4253 100.057L108.05 43.9317L104 41L99.9497 38.0683L59.3247 94.1933L63.375 97.125ZM104 41H109V40.5625H104H99V41H104ZM104 40.5625L103.585 35.5798C101.222 35.7766 98.8609 35.875 96.5 35.875V40.875V45.875C99.1391 45.875 101.778 45.765 104.415 45.5452L104 40.5625ZM96.5 40.875V35.875H67.375V40.875V45.875H96.5V40.875ZM67.375 40.875V35.875C66.9386 35.875 66.741 35.8259 66.7119 35.8175C66.6979 35.8135 66.8876 35.8674 67.134 36.0809C67.3958 36.3078 67.5641 36.579 67.6472 36.7949C67.7187 36.9809 67.6875 37.0205 67.6875 36.8125H62.6875H57.6875C57.6875 39.1386 58.3917 41.7372 60.5847 43.6378C62.6409 45.4198 65.2033 45.875 67.375 45.875V40.875ZM62.6875 36.8125H67.6875V29.4375H62.6875H57.6875V36.8125H62.6875ZM62.6875 29.4375H67.6875C67.6875 29.2295 67.7187 29.2691 67.6472 29.4551C67.5641 29.671 67.3958 29.9422 67.134 30.1691C66.8876 30.3826 66.6979 30.4365 66.7119 30.4325C66.741 30.4241 66.9386 30.375 67.375 30.375V25.375V20.375C65.2033 20.375 62.6409 20.8302 60.5847 22.6122C58.3917 24.5128 57.6875 27.1114 57.6875 29.4375H62.6875ZM67.375 25.375V30.375H124.375V25.375V20.375H67.375V25.375ZM124.375 25.375V30.375C124.811 30.375 125.009 30.4241 125.038 30.4325C125.052 30.4365 124.862 30.3826 124.616 30.1691C124.354 29.9422 124.186 29.671 124.103 29.4551C124.031 29.2691 124.062 29.2295 124.062 29.4375H129.062H134.062C134.062 27.1114 133.358 24.5128 131.165 22.6122C129.109 20.8302 126.547 20.375 124.375 20.375V25.375ZM129.062 29.4375H124.062V33.625H129.062H134.062V29.4375H129.062ZM129.062 33.625H124.062C124.062 34.648 123.748 35.739 122.835 36.9916L126.875 39.9375L130.915 42.8834C132.918 40.136 134.062 37.0186 134.062 33.625H129.062ZM126.875 39.9375L122.828 37.0012L79.703 96.4387L83.75 99.375L87.797 102.311L130.922 42.8738L126.875 39.9375ZM83.75 99.375H78.75V99.8125H83.75H88.75V99.375H83.75ZM83.75 99.8125L84.1652 104.795C86.5276 104.598 88.8891 104.5 91.25 104.5V99.5V94.5C88.6109 94.5 85.9724 94.61 83.3348 94.8298L83.75 99.8125ZM91.25 99.5V104.5H126.125V99.5V94.5H91.25V99.5ZM126.125 99.5V104.5C126.561 104.5 126.759 104.549 126.788 104.557C126.802 104.562 126.612 104.508 126.366 104.294C126.104 104.067 125.936 103.796 125.853 103.58C125.781 103.394 125.812 103.355 125.812 103.562H130.812H135.812C135.812 101.236 135.108 98.6378 132.915 96.7372C130.859 94.9552 128.297 94.5 126.125 94.5V99.5ZM130.812 103.562H125.812V110.938H130.812H135.812V103.562H130.812ZM130.812 110.938H125.812C125.812 111.145 125.781 111.106 125.853 110.92C125.936 110.704 126.104 110.433 126.366 110.206C126.612 109.992 126.802 109.938 126.788 109.943C126.759 109.951 126.561 110 126.125 110V115V120C128.297 120 130.859 119.545 132.915 117.763C135.108 115.862 135.812 113.264 135.812 110.938H130.812ZM126.125 115V110H64.875V115V120H126.125V115Z" fill="#37474F"/>
</svg>
